<?xml version="1.0" standalone="no"?>
<!DOCTYPE svg PUBLIC "-//W3C//DTD SVG 20010904//EN"
 "http://www.w3.org/TR/2001/REC-SVG-20010904/DTD/svg10.dtd">
<svg version="1.0" xmlns="http://www.w3.org/2000/svg"
 width="2353.000000pt" height="2353.000000pt" viewBox="0 0 2353.000000 2353.000000"
 preserveAspectRatio="xMidYMid meet">

<g transform="translate(0.000000,2353.000000) scale(0.100000,-0.100000)"
fill="#000000" stroke="none">
<path d="M22220 22756 c0 -42 -15 -94 -75 -249 -42 -110 -75 -212 -75 -232 0
-24 -7 -41 -24 -56 -24 -21 -47 -83 -66 -179 -6 -30 -24 -82 -40 -115 -21 -42
-30 -74 -30 -109 0 -45 -4 -52 -41 -87 -38 -35 -42 -43 -49 -106 -4 -40 -20
-98 -38 -138 -17 -39 -36 -98 -43 -133 -8 -44 -18 -66 -31 -73 -26 -14 -44
-60 -53 -131 -4 -31 -16 -69 -26 -85 -10 -15 -23 -35 -28 -43 -6 -8 -13 -41
-16 -74 -6 -51 -12 -63 -46 -97 -22 -21 -39 -48 -40 -61 -2 -62 -25 -141 -59
-202 -15 -28 -31 -75 -35 -104 -6 -44 -11 -55 -35 -67 -32 -17 -35 -24 -49
-114 -6 -39 -18 -72 -30 -85 -12 -12 -27 -52 -35 -90 -11 -54 -21 -76 -45 -98
-17 -16 -33 -39 -35 -51 -20 -98 -32 -136 -57 -182 -16 -30 -32 -73 -35 -96
-5 -27 -19 -55 -40 -79 -38 -42 -54 -78 -54 -121 0 -35 -20 -76 -49 -103 -13
-12 -21 -32 -22 -55 -2 -57 -13 -85 -39 -98 -37 -18 -50 -42 -50 -90 0 -45
-23 -103 -40 -103 -5 0 -12 -12 -16 -27 -21 -99 -34 -129 -63 -144 -24 -14
-30 -25 -36 -68 -4 -29 -22 -81 -41 -116 -18 -36 -38 -83 -44 -105 -6 -22 -24
-56 -41 -75 -18 -20 -40 -64 -53 -109 -13 -40 -33 -87 -44 -103 -12 -17 -26
-50 -31 -74 -6 -28 -20 -53 -40 -69 -22 -19 -35 -44 -50 -100 -12 -41 -30 -87
-40 -101 -11 -14 -25 -46 -31 -70 -7 -27 -24 -56 -44 -74 -24 -22 -38 -47 -50
-94 -9 -35 -27 -77 -40 -95 -13 -17 -29 -49 -36 -71 -7 -22 -27 -56 -45 -75
-21 -22 -37 -53 -45 -87 -6 -28 -23 -66 -36 -84 -14 -19 -31 -56 -39 -83 -9
-29 -27 -60 -44 -75 -20 -18 -34 -46 -46 -91 -9 -35 -27 -78 -40 -95 -12 -16
-28 -46 -34 -65 -6 -20 -26 -50 -45 -68 -23 -21 -38 -48 -46 -81 -6 -27 -22
-64 -36 -82 -13 -18 -29 -48 -35 -68 -6 -20 -24 -50 -40 -66 -15 -17 -35 -50
-44 -75 -9 -25 -28 -67 -44 -95 -15 -27 -33 -66 -40 -86 -7 -22 -22 -41 -36
-47 -28 -13 -41 -37 -50 -93 -3 -21 -18 -50 -35 -68 -17 -17 -30 -40 -30 -51
0 -34 -28 -90 -44 -90 -28 0 -53 -36 -59 -84 -5 -34 -17 -59 -42 -89 -25 -28
-35 -50 -35 -73 0 -34 -3 -38 -52 -75 -17 -12 -32 -37 -39 -62 -6 -23 -26 -64
-44 -92 -18 -27 -36 -60 -40 -72 -3 -12 -19 -32 -35 -43 -19 -14 -34 -37 -44
-73 -9 -28 -29 -72 -46 -96 -16 -24 -30 -50 -30 -57 0 -6 -16 -25 -35 -41 -27
-21 -39 -42 -50 -83 -9 -33 -23 -61 -37 -72 -13 -9 -30 -40 -38 -70 -10 -33
-24 -57 -37 -63 -39 -20 -51 -36 -58 -76 -4 -23 -20 -55 -35 -72 -15 -18 -35
-49 -43 -69 -8 -20 -27 -44 -41 -53 -14 -9 -30 -32 -36 -51 -22 -66 -97 -186
-129 -205 -34 -21 -36 -24 -46 -82 -4 -24 -18 -50 -40 -72 -19 -19 -35 -44
-35 -56 0 -12 -17 -37 -40 -58 -23 -21 -46 -55 -55 -81 -9 -25 -26 -56 -39
-70 -13 -14 -27 -35 -31 -48 -3 -12 -19 -29 -35 -37 -21 -11 -33 -29 -45 -67
-11 -32 -31 -66 -51 -85 -24 -23 -34 -41 -34 -62 0 -24 -8 -36 -35 -53 -22
-15 -41 -40 -54 -71 -27 -65 -99 -158 -129 -168 -7 -2 -22 -30 -32 -62 -12
-37 -30 -67 -50 -83 -16 -14 -34 -40 -38 -57 -5 -19 -18 -37 -33 -44 -15 -7
-35 -34 -49 -65 -14 -29 -37 -68 -52 -86 -15 -18 -28 -37 -28 -42 0 -5 -18
-21 -40 -35 -31 -19 -40 -32 -40 -53 0 -32 -31 -87 -59 -101 -11 -6 -24 -26
-30 -44 -7 -20 -22 -39 -37 -45 -14 -7 -32 -30 -43 -54 -10 -24 -28 -52 -40
-62 -11 -11 -21 -26 -21 -34 0 -21 -48 -82 -64 -82 -16 0 -39 -33 -51 -70 -4
-14 -21 -40 -36 -58 -16 -18 -29 -37 -29 -43 0 -5 -16 -17 -35 -26 -29 -14
-37 -26 -50 -69 -11 -38 -24 -59 -46 -75 -17 -12 -37 -37 -45 -55 -7 -18 -23
-35 -34 -39 -11 -4 -29 -24 -40 -45 -11 -21 -24 -41 -30 -45 -5 -3 -21 -30
-35 -60 -17 -36 -37 -60 -61 -74 -19 -11 -38 -31 -43 -43 -5 -13 -25 -44 -44
-68 -37 -46 -42 -51 -96 -100 -17 -16 -31 -38 -31 -50 0 -13 -30 -54 -72 -101
-40 -44 -80 -95 -90 -112 -9 -18 -30 -42 -46 -54 -17 -13 -32 -32 -34 -45 -2
-12 -16 -29 -31 -37 -30 -17 -68 -65 -113 -144 -18 -32 -41 -55 -66 -68 -21
-11 -45 -34 -54 -51 -24 -47 -81 -112 -115 -132 -16 -9 -36 -33 -44 -52 -16
-39 -93 -119 -123 -128 -13 -4 -26 -24 -36 -52 -11 -34 -34 -63 -85 -110 -39
-36 -73 -75 -76 -87 -4 -12 -28 -43 -53 -69 -82 -82 -112 -118 -112 -134 0 -8
-15 -24 -34 -35 -22 -13 -39 -33 -46 -53 -8 -25 -18 -35 -39 -39 -19 -4 -32
-16 -41 -37 -7 -17 -26 -38 -41 -46 -18 -9 -32 -26 -37 -47 -5 -21 -18 -37
-38 -46 -16 -8 -33 -21 -38 -29 -5 -9 -24 -30 -42 -46 -17 -17 -35 -41 -39
-53 -3 -12 -25 -35 -48 -51 -23 -15 -58 -50 -77 -77 -19 -27 -48 -62 -65 -77
-30 -28 -58 -56 -158 -156 -101 -102 -193 -193 -247 -247 -19 -19 -52 -55 -74
-80 -21 -25 -44 -45 -51 -45 -7 0 -26 -16 -42 -35 -71 -89 -98 -117 -125 -131
-15 -8 -45 -38 -67 -68 -22 -30 -57 -64 -78 -76 -53 -32 -81 -59 -110 -103
-13 -21 -36 -43 -51 -49 -15 -7 -38 -24 -52 -38 -14 -14 -34 -32 -45 -40 -11
-9 -27 -28 -35 -44 -10 -19 -27 -33 -48 -38 -20 -6 -36 -18 -42 -32 -4 -13
-24 -32 -44 -44 -20 -12 -38 -32 -42 -47 -5 -19 -15 -28 -36 -32 -20 -4 -37
-17 -50 -38 -10 -18 -32 -38 -49 -45 -16 -7 -36 -25 -44 -41 -8 -15 -23 -30
-33 -33 -11 -4 -33 -24 -51 -46 -18 -22 -39 -40 -48 -40 -8 0 -53 -36 -98 -80
-54 -54 -94 -84 -118 -91 -23 -6 -38 -17 -43 -32 -10 -34 -110 -124 -145 -131
-21 -4 -33 -14 -40 -34 -12 -34 -81 -94 -133 -116 -21 -9 -45 -29 -57 -50 -12
-20 -37 -42 -62 -54 -23 -11 -51 -30 -62 -42 -11 -12 -34 -28 -52 -35 -34 -14
-43 -38 -21 -51 25 -16 54 -11 99 16 42 26 189 70 231 70 9 0 25 11 34 25 22
34 43 44 111 55 37 6 65 18 82 34 19 18 43 26 91 31 57 7 69 12 98 43 26 27
45 37 84 43 28 5 68 20 88 34 37 26 71 37 142 49 20 4 55 22 78 41 23 19 60
40 82 46 23 6 64 24 92 39 28 16 74 34 101 40 28 5 60 12 72 15 13 3 29 18 37
33 11 22 28 32 75 45 33 9 76 28 96 41 21 15 58 27 90 31 48 6 59 12 86 46 26
33 38 39 80 45 36 5 62 16 91 40 32 27 49 34 84 34 45 0 63 11 94 58 10 16 33
28 73 37 34 8 64 22 75 34 11 14 37 25 80 32 59 11 91 32 104 70 2 6 28 17 58
25 29 8 65 25 79 38 16 14 49 29 83 36 45 9 61 18 81 44 16 20 45 40 74 51 26
10 62 28 79 41 17 13 53 28 80 35 27 6 61 23 76 36 31 30 214 123 240 123 10
0 35 15 55 34 21 18 52 41 68 50 17 9 48 28 70 42 22 13 57 29 78 35 21 5 46
19 55 31 9 11 37 30 62 42 25 12 56 29 70 38 14 9 48 29 77 45 28 15 215 127
415 247 199 121 372 224 383 230 11 6 38 25 60 42 121 93 173 131 200 149 17
10 43 32 59 47 16 16 46 36 66 44 20 8 46 28 58 44 12 15 35 31 52 35 17 4 40
20 52 36 31 41 125 109 176 126 32 11 46 23 56 47 10 25 35 43 117 88 83 45
107 63 116 88 8 22 18 30 37 30 17 0 33 11 51 34 18 24 43 40 76 51 27 9 54
25 60 36 19 36 83 90 136 114 32 15 58 35 67 52 17 33 59 67 138 111 34 20 65
46 77 67 14 24 30 37 52 42 17 3 35 15 40 27 6 12 28 31 50 44 22 13 45 34 51
47 6 13 21 26 34 29 12 3 32 20 44 36 12 17 40 40 63 51 23 12 69 50 102 86
40 43 73 69 100 77 28 10 46 24 60 49 23 40 85 97 133 121 18 9 37 27 42 39
11 29 84 98 123 117 18 8 39 29 47 46 8 17 37 49 63 70 53 42 93 81 147 144
19 23 52 50 72 61 22 11 46 35 57 57 22 42 61 80 109 108 19 10 42 35 52 55
10 19 37 51 60 70 60 50 100 90 145 148 22 28 53 56 68 62 15 7 36 28 47 48
10 20 43 57 72 84 87 78 98 89 98 106 0 9 32 47 70 84 39 38 78 83 86 100 9
17 28 43 43 57 27 27 302 379 359 460 18 25 51 68 75 96 23 28 70 89 105 135
35 46 92 122 128 169 84 111 141 193 142 203 0 5 9 15 19 24 10 8 12 12 3 8
-8 -4 -3 3 12 16 33 29 98 119 98 136 0 7 4 12 10 11 5 -2 29 24 54 56 45 61
166 256 166 269 0 4 -7 7 -17 7 -14 0 -14 2 3 21 10 12 28 39 39 62 11 23 27
43 35 45 11 4 10 -1 -4 -17 -11 -11 -17 -23 -14 -26 6 -6 41 43 44 60 0 6 5
21 9 33 6 18 10 20 16 10 7 -11 9 -11 9 0 0 8 22 46 48 85 80 117 138 218 165
282 14 33 55 125 92 205 36 80 75 168 86 195 11 28 33 77 49 110 73 152 131
285 149 340 10 33 76 222 145 420 113 321 168 498 266 855 35 129 53 272 44
353 -6 48 -4 58 6 52 9 -5 11 -4 6 4 -5 7 -3 24 3 39 18 44 81 563 102 837 6
83 19 245 28 360 16 192 16 248 3 640 -14 460 -9 404 -102 1040 -17 110 -35
274 -40 365 -22 341 -29 417 -48 500 -11 47 -27 121 -37 165 -9 44 -24 91 -32
104 -10 16 -11 21 -2 16 9 -6 11 -3 6 9 -4 10 -7 22 -7 27 0 5 -7 9 -15 9 -12
0 -15 13 -15 55 0 32 -9 76 -21 107 -12 29 -23 64 -24 78 -2 26 -60 223 -93
320 -12 35 -21 49 -25 40 -4 -8 -5 -3 -2 12 3 15 0 30 -5 33 -6 4 -8 10 -5 15
3 5 1 11 -5 15 -5 3 -10 13 -10 22 0 25 -292 563 -306 563 -2 0 -4 -24 -4 -54z
m597 -1588 c-3 -8 -6 -5 -6 6 -1 11 2 17 5 13 3 -3 4 -12 1 -19z m0 -3970 c-3
-8 -6 -5 -6 6 -1 11 2 17 5 13 3 -3 4 -12 1 -19z m-110 -495 c-3 -10 -5 -2 -5
17 0 19 2 27 5 18 2 -10 2 -26 0 -35z m-17 -67 c0 -3 -4 -8 -10 -11 -5 -3 -10
-1 -10 4 0 6 5 11 10 11 6 0 10 -2 10 -4z m-28 -48 c-7 -7 -12 -8 -12 -2 0 14
12 26 19 19 2 -3 -1 -11 -7 -17z m-116 -405 c-11 -11 -19 6 -11 24 8 17 8 17
12 0 3 -10 2 -21 -1 -24z m-79 -225 c-2 -13 -4 -5 -4 17 -1 22 1 32 4 23 2
-10 2 -28 0 -40z m-90 -210 c-3 -8 -6 -5 -6 6 -1 11 2 17 5 13 3 -3 4 -12 1
-19z m-97 -278 c0 -5 -4 -10 -10 -10 -5 0 -10 5 -10 10 0 6 5 10 10 10 6 0 10
-4 10 -10z m-64 -106 c-4 -9 -9 -15 -11 -12 -3 3 -3 13 1 22 4 9 9 15 11 12 3
-3 3 -13 -1 -22z m-156 -323 c0 -6 -4 -13 -10 -16 -5 -3 -10 1 -10 9 0 9 5 16
10 16 6 0 10 -4 10 -9z m-23 -53 c-3 -8 -6 -5 -6 6 -1 11 2 17 5 13 3 -3 4
-12 1 -19z m-91 -213 c-11 -8 -22 -12 -25 -9 -6 6 19 24 34 24 6 -1 1 -7 -9
-15z m-82 -133 c-30 -52 -54 -78 -54 -61 0 17 50 88 63 89 5 0 1 -13 -9 -28z"/>
<path d="M8431 22506 c-7 -8 -40 -17 -74 -21 -70 -8 -187 -51 -357 -132 -63
-30 -133 -63 -155 -73 -22 -10 -56 -26 -75 -35 -19 -9 -66 -34 -105 -55 -38
-22 -86 -47 -105 -56 -99 -46 -130 -62 -190 -101 -36 -24 -72 -43 -81 -43 -8
0 -62 -24 -120 -54 -231 -119 -349 -176 -364 -176 -7 0 -39 -12 -71 -26 -33
-14 -68 -29 -79 -33 -11 -4 -49 -22 -85 -39 -36 -18 -72 -32 -79 -32 -7 0 -27
-7 -44 -15 -18 -8 -61 -24 -97 -34 -217 -66 -251 -86 -237 -143 20 -79 254
-228 384 -244 26 -3 68 -13 93 -22 44 -14 131 -26 295 -38 43 -4 88 -12 100
-19 14 -10 80 -14 235 -16 171 -3 227 -7 275 -21 33 -10 77 -18 97 -18 20 0
72 -11 115 -24 43 -13 107 -31 143 -39 158 -37 483 -194 568 -275 8 -7 30 -19
49 -27 41 -17 313 -289 313 -313 0 -8 22 -48 49 -87 27 -40 56 -88 64 -106 88
-193 100 -230 132 -379 14 -63 30 -135 36 -160 29 -111 33 -190 31 -630 -6
-1567 -3 -1808 21 -1870 3 -8 8 -27 11 -42 10 -45 44 -36 102 25 50 52 121
135 159 188 11 15 67 81 125 146 99 111 340 395 367 432 12 16 11 25 -17 149
-6 23 -10 58 -10 77 0 20 -7 47 -16 61 -9 14 -18 42 -20 62 -1 20 -7 71 -13
112 -6 41 -11 98 -11 125 0 29 -7 60 -16 73 -13 19 -15 67 -11 375 3 193 5
379 5 412 1 62 14 275 34 550 7 88 13 192 14 230 1 39 7 99 14 135 29 164 46
1050 23 1210 -36 244 -174 531 -340 705 -48 51 -225 195 -238 195 -12 0 -129
61 -145 76 -9 7 -47 20 -85 28 -39 8 -90 22 -114 30 -61 22 -482 23 -500 2z"/>
<path d="M4290 21218 c-136 -29 -231 -52 -280 -68 -150 -50 -457 -163 -517
-191 -37 -17 -86 -37 -108 -45 -21 -8 -60 -27 -85 -43 -25 -15 -79 -47 -120
-71 -41 -24 -86 -53 -100 -65 -14 -12 -41 -29 -60 -38 -34 -16 -95 -62 -237
-178 -160 -131 -563 -556 -563 -593 0 -4 -19 -32 -41 -62 -23 -30 -49 -67 -58
-83 -22 -40 -69 -108 -106 -156 -18 -22 -35 -53 -39 -69 -4 -17 -16 -42 -27
-57 -10 -15 -19 -32 -19 -37 0 -6 -10 -19 -22 -29 -13 -10 -24 -31 -26 -47 -2
-16 -12 -41 -23 -54 -10 -14 -19 -35 -19 -47 0 -13 -7 -36 -15 -51 -19 -37
-20 -93 0 -100 19 -8 123 45 158 80 15 15 52 38 81 52 30 13 61 36 70 49 9 14
40 37 68 51 29 15 75 44 102 64 28 21 71 47 96 58 25 11 88 44 140 74 52 29
115 63 140 73 25 11 69 32 98 47 29 15 57 28 63 28 5 0 60 24 122 53 62 29
132 59 157 66 25 7 68 21 95 31 28 10 66 24 85 30 19 7 57 22 84 32 54 22 129
43 221 64 33 7 98 23 145 35 245 60 343 80 435 89 50 4 108 15 130 23 94 36
1175 41 1279 7 16 -6 59 -10 95 -10 60 0 222 -23 240 -34 4 -3 88 -21 187 -41
203 -41 327 -72 366 -91 15 -8 37 -14 50 -14 13 0 35 -6 50 -14 15 -8 53 -22
85 -31 32 -9 79 -25 104 -35 26 -11 83 -31 128 -45 44 -14 86 -31 93 -38 7 -7
33 -19 58 -26 54 -16 339 -150 438 -206 24 -13 74 -41 110 -62 37 -21 81 -45
97 -55 69 -39 76 -41 85 -32 6 6 -9 47 -44 114 -45 88 -77 142 -181 301 -41
62 -92 137 -103 149 -7 8 -23 29 -35 46 -64 92 -118 152 -243 274 -204 199
-305 283 -474 396 -30 20 -64 45 -75 55 -11 9 -51 34 -90 54 -38 21 -77 43
-85 50 -8 7 -40 25 -70 40 -30 15 -63 31 -72 36 -79 41 -252 115 -293 125 -16
4 -52 17 -80 30 -27 13 -102 37 -165 54 -63 16 -131 34 -150 40 -19 5 -89 21
-154 35 -119 25 -120 25 -625 24 -278 -1 -526 -6 -551 -11z"/>
<path d="M10464 19795 c-3 -8 -2 -101 2 -207 10 -273 7 -952 -6 -1083 -6 -60
-14 -148 -16 -195 -3 -47 -9 -94 -14 -105 -19 -45 -42 -184 -41 -244 1 -42 -4
-72 -14 -87 -8 -13 -15 -28 -15 -33 0 -6 -13 -39 -29 -73 -15 -35 -32 -79 -36
-98 -7 -32 -23 -69 -36 -80 -8 -8 -69 -110 -69 -116 0 -4 -9 -16 -19 -28 -46
-52 -143 -156 -195 -210 -31 -32 -56 -62 -56 -67 0 -4 -11 -18 -24 -31 -37
-36 -275 -356 -605 -813 -167 -231 -316 -436 -331 -455 -15 -19 -39 -53 -53
-75 -14 -22 -40 -58 -56 -80 -17 -22 -42 -60 -57 -85 -15 -25 -41 -63 -58 -84
-17 -22 -40 -57 -51 -77 -11 -21 -41 -69 -66 -106 -26 -37 -66 -103 -90 -145
-24 -42 -153 -265 -285 -495 -271 -468 -560 -990 -610 -1099 -18 -39 -37 -75
-42 -78 -6 -3 -20 -37 -31 -76 -12 -38 -31 -87 -44 -107 -27 -47 -67 -143 -67
-163 0 -9 -6 -24 -14 -35 -7 -11 -19 -38 -26 -60 -6 -22 -21 -58 -31 -81 -10
-22 -19 -46 -19 -52 0 -6 -11 -35 -24 -64 -45 -102 -83 -237 -131 -468 -67
-319 -68 -328 -72 -543 -4 -186 -2 -217 17 -300 12 -51 28 -106 36 -124 8 -17
14 -40 14 -51 0 -12 14 -30 30 -42 17 -12 45 -46 61 -76 17 -30 34 -54 37 -54
4 0 27 -19 52 -43 64 -60 165 -125 237 -152 51 -20 82 -24 190 -25 141 -2 262
11 308 34 17 8 46 16 65 19 19 3 57 14 83 26 27 12 57 21 67 21 11 0 42 9 70
20 28 11 60 20 71 20 12 0 34 9 49 20 16 11 35 17 43 14 8 -3 33 4 56 15 22
12 46 21 53 21 7 0 41 14 75 30 34 17 84 35 112 40 28 5 58 14 68 19 52 28
195 90 243 106 30 10 62 23 70 30 8 6 38 22 65 34 28 13 66 31 86 42 20 10 44
19 52 19 9 0 28 11 44 24 15 12 61 38 101 56 39 19 72 38 72 42 0 5 21 18 48
30 73 32 182 97 233 140 26 21 64 45 85 54 21 9 60 36 87 60 27 24 79 64 117
89 37 25 74 52 81 61 8 10 36 34 64 54 57 43 410 393 463 460 20 25 54 65 77
90 58 63 144 177 159 208 12 28 133 213 144 222 4 3 13 19 21 35 7 17 18 39
24 50 6 11 17 34 25 50 12 28 23 49 65 130 49 97 86 185 92 220 22 126 27 160
39 265 8 65 23 136 35 162 26 61 39 147 51 328 10 138 21 219 40 285 5 17 13
66 19 110 25 199 32 292 30 400 -2 95 1 118 15 133 14 17 17 61 21 373 6 368
6 730 2 1149 -2 220 -4 249 -21 274 -15 23 -19 51 -20 150 -1 66 -8 141 -15
166 -6 25 -16 74 -21 110 -6 36 -14 90 -20 120 -5 30 -14 100 -20 155 -6 55
-18 123 -27 150 -9 28 -20 69 -25 93 -19 99 -26 130 -38 177 -17 67 -81 257
-91 270 -4 6 -10 22 -12 35 -11 58 -21 88 -48 140 -15 30 -31 67 -35 83 -3 15
-10 30 -15 33 -5 3 -9 13 -9 22 0 9 -7 30 -15 46 -8 15 -15 34 -15 41 0 7 -4
15 -8 17 -12 5 -52 65 -52 78 0 18 -38 96 -52 108 -8 6 -38 50 -68 97 -130
205 -244 330 -474 523 -100 83 -122 94 -132 67z"/>
<path d="M8378 19691 c-24 -8 -75 -50 -152 -126 -12 -11 -43 -36 -69 -55 -27
-19 -73 -56 -103 -82 -30 -26 -73 -60 -96 -74 -45 -28 -458 -435 -458 -451 0
-5 -17 -23 -37 -40 -21 -17 -68 -57 -104 -89 -171 -154 -218 -194 -264 -229
-27 -21 -67 -52 -87 -69 -69 -58 -145 -116 -153 -116 -4 0 -22 -12 -40 -27
-77 -65 -311 -227 -359 -250 -45 -21 -73 -38 -93 -55 -10 -9 -34 -24 -53 -33
-19 -10 -53 -32 -75 -49 -22 -18 -58 -41 -80 -53 -22 -11 -54 -29 -72 -40
-124 -72 -172 -100 -203 -114 -19 -10 -66 -32 -104 -50 -38 -18 -81 -42 -95
-54 -28 -23 -250 -138 -421 -218 -36 -17 -81 -39 -100 -49 -72 -39 -186 -88
-203 -88 -8 0 -22 -9 -32 -20 -10 -11 -23 -20 -28 -20 -6 0 -33 -11 -61 -24
-28 -13 -62 -28 -76 -35 -14 -6 -32 -15 -40 -20 -8 -5 -35 -18 -60 -29 -25
-11 -79 -36 -120 -55 -41 -19 -106 -47 -145 -63 -38 -15 -88 -38 -110 -51 -89
-50 -448 -223 -492 -237 -66 -20 -120 -44 -128 -56 -3 -5 -17 -10 -29 -10 -13
0 -29 -7 -36 -14 -6 -8 -33 -23 -58 -32 -26 -10 -65 -28 -87 -40 -22 -13 -78
-42 -125 -65 -47 -23 -110 -59 -140 -80 -30 -20 -66 -40 -79 -44 -14 -4 -47
-25 -74 -46 -27 -22 -53 -39 -57 -39 -5 0 -30 -15 -56 -32 -25 -18 -60 -42
-78 -53 -85 -54 -209 -147 -213 -161 -2 -6 13 -14 34 -17 21 -4 1120 -7 2443
-7 2087 0 2421 2 2520 15 63 8 119 20 124 25 6 6 16 10 22 10 12 0 71 26 210
91 127 60 409 398 474 569 7 19 19 42 27 51 7 8 15 31 19 50 3 19 10 45 15 59
5 14 13 59 18 100 5 41 16 120 25 176 14 89 16 214 12 1095 -4 878 -9 1112
-30 1303 -9 87 -89 142 -168 117z"/>
<path d="M3167 19513 c-12 -12 -7 -88 7 -108 7 -11 16 -33 20 -50 10 -43 132
-290 171 -344 18 -25 41 -61 51 -80 11 -18 24 -43 31 -55 26 -44 357 -367 447
-435 52 -39 98 -71 103 -71 5 0 40 -20 77 -45 38 -25 71 -45 74 -45 6 0 52
-20 139 -61 23 -11 68 -25 100 -31 32 -6 74 -19 94 -29 113 -58 248 -79 556
-86 215 -4 454 19 577 57 61 19 413 167 490 207 55 28 140 85 196 133 30 26
69 57 85 71 63 50 287 283 310 321 5 9 28 43 49 75 77 115 92 140 145 248 29
61 59 124 66 140 26 59 57 174 50 184 -7 12 -3826 16 -3838 4z"/>
<path d="M1103 18938 c-56 -57 -109 -111 -118 -120 -9 -10 -20 -18 -24 -18 -3
0 -15 -15 -26 -32 -21 -38 -78 -111 -116 -150 -15 -15 -36 -45 -47 -66 -11
-22 -30 -50 -42 -63 -51 -58 -90 -107 -90 -114 0 -4 -20 -38 -45 -75 -25 -37
-45 -72 -45 -77 0 -6 -9 -22 -20 -36 -27 -34 -89 -157 -90 -177 0 -8 -7 -24
-15 -34 -8 -11 -15 -28 -15 -37 0 -10 -13 -42 -28 -71 -16 -29 -35 -80 -42
-113 -7 -33 -16 -73 -20 -90 -10 -38 -6 -534 5 -595 4 -25 11 -49 15 -55 4 -5
15 -30 23 -55 43 -126 67 -181 91 -212 14 -19 26 -39 26 -45 0 -5 13 -28 28
-49 16 -21 41 -63 57 -91 15 -29 32 -53 37 -53 5 0 28 -21 51 -46 23 -25 70
-69 105 -98 35 -28 87 -70 115 -93 29 -23 57 -42 62 -43 6 0 39 -18 75 -40 36
-22 82 -43 103 -46 20 -4 40 -11 43 -15 3 -5 16 -9 29 -9 13 0 27 -4 30 -10 4
-6 98 -10 250 -10 152 0 246 4 250 10 3 6 21 10 39 10 34 0 197 49 244 73 32
17 93 37 112 37 7 0 21 7 30 15 22 20 130 75 148 75 7 0 32 13 55 28 23 16 76
46 117 67 41 22 99 54 128 72 29 18 55 33 58 33 3 0 22 13 42 29 20 16 48 32
62 36 14 4 27 11 30 15 3 3 32 21 65 40 33 18 74 46 91 61 18 14 56 38 85 52
30 14 85 48 124 76 38 28 75 51 82 51 6 0 24 11 40 23 24 21 101 67 191 117
15 8 37 25 50 38 12 12 26 22 32 22 5 0 33 14 62 32 136 82 347 188 372 188 9
0 16 4 16 9 0 11 146 81 170 81 11 0 22 5 25 10 3 6 13 10 22 10 8 0 27 8 41
18 15 10 52 24 82 31 30 8 60 18 66 22 6 5 22 9 35 8 38 0 133 23 149 37 10 8
49 14 105 16 110 4 117 15 51 86 -53 57 -196 132 -271 144 -27 4 -70 11 -95
17 -135 28 -175 33 -235 26 -36 -3 -67 -11 -70 -16 -4 -5 -52 -9 -107 -9 -56
0 -115 -4 -132 -10 -17 -5 -80 -13 -141 -19 -60 -5 -132 -14 -160 -21 -27 -6
-68 -14 -90 -16 -22 -3 -49 -9 -60 -14 -11 -5 -45 -12 -75 -15 -30 -3 -98 -10
-150 -16 -52 -5 -124 -13 -160 -16 -36 -4 -162 -7 -280 -6 -308 0 -328 1 -335
13 -3 5 -21 10 -40 10 -19 0 -37 5 -40 10 -3 6 -19 10 -35 10 -16 0 -32 5 -35
10 -3 6 -15 10 -25 10 -11 0 -39 11 -64 25 -25 14 -50 25 -57 25 -29 0 -179
82 -205 112 -16 18 -53 53 -82 77 -28 24 -52 52 -52 62 0 9 -17 31 -37 48 -65
52 -83 73 -83 95 0 12 -18 39 -40 60 -22 22 -48 55 -56 75 -9 20 -20 43 -25
51 -5 8 -12 22 -15 30 -6 16 -14 31 -45 87 -10 18 -19 42 -19 51 0 10 -7 27
-15 38 -8 10 -15 28 -15 39 0 23 -23 91 -33 101 -4 4 -7 15 -7 25 0 10 -9 35
-20 55 -12 20 -20 44 -19 53 3 16 -5 49 -21 86 -4 11 -12 43 -16 70 -8 46 -11
50 -39 53 -26 2 -43 -10 -132 -100z"/>
<path d="M5721 15809 c-13 -5 -52 -9 -85 -9 -34 1 -78 -3 -98 -8 -20 -5 -39
-7 -42 -5 -3 3 -29 -2 -58 -11 -29 -9 -215 -43 -413 -76 -656 -111 -710 -120
-755 -135 -25 -7 -72 -19 -105 -25 -33 -7 -100 -25 -150 -40 -49 -15 -121 -35
-160 -43 -88 -19 -288 -85 -448 -147 -29 -11 -66 -20 -82 -20 -17 0 -46 -5
-65 -10 -88 -27 -212 -33 -820 -40 -668 -9 -784 -15 -835 -43 -19 -11 -50 -17
-85 -16 -30 0 -82 -7 -115 -17 -33 -9 -76 -18 -95 -20 -56 -4 -208 -52 -345
-109 -162 -67 -202 -90 -263 -154 -35 -36 -70 -80 -78 -98 -19 -44 -18 -124 3
-192 16 -49 33 -72 140 -181 67 -69 130 -132 139 -142 8 -9 27 -19 41 -23 14
-3 56 -27 95 -53 75 -51 78 -52 153 -97 28 -16 61 -37 74 -47 13 -10 31 -18
39 -18 9 0 23 -6 31 -14 16 -13 62 -37 207 -109 39 -19 79 -39 90 -45 77 -41
309 -141 519 -224 139 -56 263 -112 281 -126 55 -46 123 -101 256 -207 75 -60
428 -412 812 -810 427 -444 592 -610 729 -733 156 -142 793 -652 867 -694 215
-124 308 -170 425 -208 66 -22 134 -45 150 -52 18 -7 113 -13 241 -16 227 -4
238 -2 374 54 139 57 284 201 364 361 20 39 36 76 36 81 0 5 11 43 24 83 36
113 49 258 43 485 -3 110 -11 246 -18 304 -11 90 -10 132 5 295 25 279 30 317
65 510 6 33 25 98 42 145 17 47 37 108 44 135 7 28 26 86 43 130 17 44 34 96
37 115 7 31 70 186 95 232 6 10 10 22 10 28 0 6 17 46 39 89 21 43 44 96 51
117 7 21 28 70 47 107 19 37 45 98 59 135 14 37 31 74 38 82 7 8 19 31 26 50
7 19 32 73 56 120 23 47 51 105 63 130 11 25 25 52 29 60 17 28 159 334 239
515 20 44 42 94 50 110 22 46 91 217 97 243 3 12 8 31 12 42 4 15 -4 24 -38
40 -69 34 -368 132 -428 140 -53 7 -139 25 -280 55 -36 8 -105 19 -155 25
-116 13 -1231 12 -1264 -1z"/>
<path d="M22261 12720 c-51 -55 -90 -104 -87 -109 6 -10 -18 -34 -26 -26 -8 8
-148 -145 -148 -161 0 -8 -6 -14 -13 -14 -16 0 -81 -67 -132 -135 -21 -27 -39
-48 -41 -45 -6 9 -105 -110 -100 -119 3 -5 -4 -11 -15 -14 -11 -3 -23 -15 -26
-26 -3 -12 -11 -20 -18 -19 -7 2 -40 -28 -75 -67 -206 -232 -554 -585 -576
-585 -15 0 -272 -244 -268 -254 3 -7 -11 -20 -31 -29 -19 -9 -35 -24 -35 -32
0 -23 -99 -125 -121 -125 -10 0 -26 -12 -36 -26 -33 -48 -118 -131 -141 -138
-12 -4 -33 -24 -46 -45 -23 -36 -91 -97 -134 -120 -12 -6 -33 -29 -46 -50 -14
-22 -57 -59 -104 -91 -52 -35 -84 -64 -93 -84 -9 -20 -25 -35 -45 -41 -17 -6
-45 -25 -62 -43 -16 -17 -37 -32 -47 -32 -9 0 -22 -15 -30 -34 -9 -20 -23 -36
-38 -40 -13 -3 -38 -24 -56 -46 -17 -22 -37 -40 -43 -40 -6 0 -50 -36 -99 -80
-52 -47 -103 -85 -125 -92 -27 -9 -44 -23 -54 -44 -20 -41 -79 -91 -127 -107
-25 -9 -43 -24 -54 -45 -16 -31 -79 -84 -133 -112 -16 -8 -47 -36 -69 -62 -27
-32 -48 -48 -63 -48 -15 0 -32 -12 -46 -31 -13 -17 -40 -38 -60 -46 -21 -8
-38 -21 -38 -29 0 -7 -12 -21 -27 -31 -16 -9 -46 -33 -68 -53 -22 -21 -55 -40
-74 -44 -37 -7 -71 -31 -71 -52 0 -17 -96 -93 -146 -114 -27 -12 -45 -28 -53
-48 -12 -29 -47 -52 -80 -52 -9 0 -32 -16 -51 -35 -19 -19 -39 -35 -45 -35 -7
0 -26 -16 -44 -35 -17 -19 -36 -35 -40 -35 -5 0 -32 -20 -61 -44 -34 -29 -64
-46 -91 -50 -32 -5 -42 -12 -56 -41 -9 -19 -25 -37 -35 -41 -10 -3 -31 -16
-47 -30 -16 -13 -54 -35 -84 -49 -37 -16 -60 -33 -69 -52 -9 -19 -24 -29 -47
-34 -20 -4 -43 -19 -58 -37 -18 -23 -37 -33 -79 -42 -49 -10 -57 -16 -69 -44
-9 -20 -26 -38 -44 -46 -17 -7 -36 -19 -43 -28 -7 -8 -41 -28 -75 -43 -44 -20
-66 -36 -78 -58 -11 -22 -23 -31 -41 -31 -15 0 -38 -12 -56 -30 -38 -38 -60
-50 -94 -50 -19 0 -39 -13 -68 -44 -42 -44 -134 -103 -195 -124 -18 -6 -50
-26 -70 -43 -60 -50 -153 -106 -199 -118 -32 -9 -48 -21 -67 -51 -22 -34 -30
-40 -60 -40 -27 0 -44 -8 -70 -35 -22 -22 -48 -36 -72 -40 -78 -13 -85 -16
-96 -45 -10 -27 -63 -59 -100 -60 -6 0 -29 -14 -51 -30 -21 -16 -62 -36 -91
-44 -35 -11 -55 -23 -65 -40 -7 -14 -29 -31 -48 -37 -20 -7 -55 -24 -79 -40
-25 -15 -66 -32 -92 -39 -32 -7 -60 -23 -81 -45 -18 -19 -47 -37 -64 -40 -17
-4 -47 -17 -66 -30 -19 -13 -64 -33 -100 -45 -36 -12 -79 -35 -96 -51 -17 -16
-48 -34 -69 -40 -21 -6 -54 -21 -74 -34 -20 -13 -68 -33 -107 -44 -49 -14 -79
-30 -96 -50 -15 -16 -41 -32 -60 -36 -18 -4 -63 -22 -99 -41 -40 -20 -88 -36
-124 -40 -38 -5 -64 -14 -74 -26 -9 -10 -23 -27 -32 -37 -10 -11 -37 -22 -68
-26 -33 -4 -63 -17 -86 -35 -36 -28 -48 -33 -133 -45 -33 -5 -46 -13 -57 -35
-16 -32 -25 -36 -91 -45 -27 -4 -77 -20 -110 -36 -34 -16 -95 -37 -135 -45
-56 -11 -82 -22 -105 -45 -31 -30 -82 -48 -138 -49 -16 0 -44 -11 -61 -25 -24
-18 -59 -28 -131 -40 -85 -14 -103 -20 -130 -46 -26 -25 -46 -33 -119 -45 -61
-11 -98 -23 -120 -40 -30 -23 -105 -39 -210 -46 -47 -3 -71 -14 -105 -49 -21
-21 -39 -27 -99 -33 -40 -3 -89 -15 -109 -25 -47 -24 -123 -40 -236 -51 -74
-7 -97 -14 -140 -41 -41 -26 -67 -34 -136 -41 -47 -6 -133 -23 -192 -39 -67
-19 -140 -31 -195 -33 -88 -4 -143 -17 -143 -35 0 -27 56 -43 152 -41 63 1
186 -28 218 -50 32 -23 59 -27 245 -40 221 -16 242 -19 308 -41 47 -16 103
-22 266 -29 273 -13 330 -19 367 -41 66 -40 179 -44 1174 -44 880 0 950 1
1020 18 41 10 89 23 105 29 65 22 108 27 308 37 131 7 220 16 241 25 38 16
137 32 246 41 178 14 244 27 317 62 63 31 82 35 144 34 58 -1 90 6 173 35 66
23 134 39 196 45 90 10 121 20 209 69 18 10 63 22 100 26 46 5 74 13 93 29 17
15 47 25 84 30 65 8 190 50 215 71 8 8 50 23 93 34 42 11 89 29 103 40 14 11
37 20 52 20 41 0 132 39 153 65 11 15 34 26 61 30 23 4 74 22 112 41 39 18 94
39 123 46 38 8 59 19 73 39 12 17 39 34 69 44 27 9 59 24 72 34 13 10 54 28
91 40 44 15 73 31 83 47 9 13 33 28 54 34 20 5 55 24 76 41 21 16 58 36 83 42
25 7 50 22 60 35 33 49 51 62 85 62 27 0 39 7 60 34 19 26 36 36 68 41 48 8
78 24 78 42 0 7 11 20 26 30 14 10 43 33 65 51 23 17 49 32 59 32 16 0 47 27
93 79 9 12 28 21 41 21 15 0 33 12 50 34 14 19 41 40 60 46 19 6 38 20 41 31
4 10 20 26 36 34 16 9 37 27 46 42 10 14 45 38 80 54 36 16 63 34 63 43 0 24
76 95 123 115 29 12 48 28 52 43 9 29 91 109 127 125 15 7 34 26 43 44 21 40
80 99 119 119 18 8 39 32 50 53 19 39 73 98 120 130 14 10 35 35 46 57 11 21
47 62 80 92 34 29 72 72 85 95 14 23 37 54 52 70 32 33 137 183 172 246 13 23
38 58 55 77 17 19 42 53 56 75 13 22 52 79 87 126 35 48 63 90 63 94 0 3 15
27 32 53 18 26 41 63 52 82 10 19 27 46 38 60 45 58 169 281 162 291 -4 7 -3
9 3 6 5 -3 20 15 34 40 13 26 31 54 40 64 41 42 159 288 159 332 0 12 14 45
30 72 16 28 30 64 30 80 0 47 11 74 30 80 12 4 31 38 53 93 19 48 45 112 57
142 13 30 30 73 38 95 9 22 24 60 35 85 23 54 57 172 57 201 0 11 11 39 24 62
14 23 28 62 32 87 4 25 19 71 34 102 15 32 40 104 55 160 15 57 38 128 51 159
13 31 24 73 24 93 0 45 17 118 41 176 11 25 30 95 43 155 14 61 35 160 49 220
41 180 47 225 53 386 6 149 -16 452 -35 487 -5 8 -37 -20 -100 -88z m24 -29
c-3 -6 -16 -16 -28 -22 -21 -11 -21 -10 2 15 23 25 40 29 26 7z m-485 -515 c0
-2 -8 -10 -17 -17 -16 -13 -17 -12 -4 4 13 16 21 21 21 13z m-40 -40 c0 -2 -8
-10 -17 -17 -16 -13 -17 -12 -4 4 13 16 21 21 21 13z m-110 -109 c0 -2 -10
-12 -22 -23 l-23 -19 19 23 c18 21 26 27 26 19z"/>
<path d="M7117 10502 c-21 -22 -37 -43 -35 -48 6 -19 -34 -103 -53 -109 -26
-9 -42 -42 -45 -95 -1 -27 -17 -77 -37 -120 -42 -92 -52 -119 -48 -144 2 -11
-14 -36 -37 -60 -37 -38 -40 -46 -46 -116 -5 -55 -14 -87 -36 -126 -29 -52
-49 -138 -48 -208 0 -31 -7 -45 -36 -75 -36 -37 -37 -39 -46 -152 -16 -191
-17 -203 -25 -229 -4 -14 -8 -32 -9 -40 -7 -41 -19 -86 -26 -95 -5 -6 -12
-150 -15 -320 -8 -352 4 -636 30 -706 20 -53 18 -43 45 -280 10 -88 32 -159
50 -159 22 0 36 -47 39 -131 1 -35 8 -55 30 -83 19 -23 34 -59 41 -94 21 -107
29 -127 52 -137 15 -7 28 -30 43 -76 11 -36 30 -78 41 -95 12 -16 27 -51 34
-79 14 -54 35 -85 57 -85 7 0 16 -13 19 -28 3 -16 21 -44 39 -63 18 -19 36
-51 40 -70 11 -53 33 -87 63 -103 26 -13 82 -95 120 -171 8 -16 28 -39 45 -50
17 -11 34 -31 37 -45 3 -14 15 -30 27 -35 34 -18 53 -36 53 -54 0 -22 99 -126
128 -135 13 -4 31 -28 45 -60 20 -44 34 -59 81 -85 31 -18 56 -38 56 -45 0
-15 106 -115 138 -129 12 -6 31 -25 42 -43 11 -17 33 -37 48 -43 15 -6 32 -22
37 -34 6 -12 26 -30 45 -39 19 -10 42 -30 51 -45 11 -20 26 -29 50 -33 27 -4
38 -13 54 -42 11 -20 27 -39 36 -41 37 -10 168 -104 179 -128 13 -30 39 -45
91 -53 23 -4 43 -16 57 -36 14 -18 38 -33 62 -40 28 -8 40 -16 40 -29 0 -25
15 -36 83 -59 32 -12 71 -32 88 -46 17 -14 37 -26 44 -26 8 0 32 -18 54 -40
26 -27 48 -40 66 -40 31 0 63 -15 88 -41 9 -10 42 -26 72 -34 32 -10 62 -26
74 -41 20 -26 85 -58 138 -67 26 -5 35 -2 43 12 18 34 1 77 -36 94 -19 9 -34
23 -34 32 0 16 -28 48 -51 57 -8 3 -22 23 -33 44 -36 77 -45 89 -65 94 -26 7
-98 90 -107 124 -3 15 -26 44 -50 64 -24 20 -47 45 -50 57 -3 11 -18 36 -33
55 -15 19 -36 52 -46 73 -10 22 -29 44 -42 50 -12 5 -23 19 -23 29 0 11 -13
33 -30 49 -46 47 -60 71 -60 106 0 25 -9 39 -44 68 -27 21 -50 51 -57 72 -6
19 -23 49 -39 66 -15 18 -30 47 -34 66 -3 19 -24 53 -46 77 -22 24 -43 57 -46
73 -4 17 -12 32 -19 35 -7 2 -23 37 -35 78 -15 47 -33 83 -52 101 -16 15 -35
47 -42 71 -8 24 -25 59 -40 78 -14 19 -26 40 -26 47 0 31 -42 124 -63 142 -16
12 -29 38 -37 69 -7 27 -24 67 -40 88 -15 21 -30 53 -34 72 -3 19 -8 44 -10
55 -8 44 -37 97 -55 102 -15 4 -23 19 -31 62 -13 66 -35 121 -50 121 -5 0 -10
8 -10 18 0 10 -3 21 -6 25 -4 3 -8 32 -10 64 -4 50 -9 62 -38 90 -31 28 -44
59 -52 118 -1 11 -3 20 -4 20 -1 0 -3 13 -5 29 -2 16 -8 32 -12 35 -21 15 -44
89 -54 173 -10 85 -23 118 -47 118 -21 0 -33 32 -42 108 -5 45 -17 96 -27 114
-31 58 -43 101 -52 184 -7 66 -15 93 -47 150 -21 38 -38 72 -36 76 7 24 -18
181 -32 197 -20 22 -47 146 -50 236 -3 88 -11 117 -50 174 -29 43 -31 53 -34
151 -2 58 -6 112 -9 120 -3 8 -7 20 -8 25 -1 6 -3 12 -5 15 -1 3 -4 14 -6 25
-2 11 -12 45 -23 75 -14 41 -22 106 -31 248 -12 189 -16 208 -53 263 -26 38
-41 219 -20 236 13 10 13 12 0 20 -11 6 -16 38 -21 123 -9 167 -10 178 -18
186 -5 4 -8 22 -8 41 0 28 -4 33 -23 33 -13 0 -38 -16 -60 -38z"/>
<path d="M19780 5541 c-8 -4 -71 -25 -140 -46 -69 -21 -136 -46 -150 -56 -14
-9 -48 -19 -77 -22 -28 -3 -71 -15 -95 -27 -24 -12 -93 -34 -154 -50 -120 -31
-178 -52 -188 -68 -4 -6 -28 -14 -54 -17 -81 -11 -178 -34 -224 -54 -24 -10
-78 -22 -118 -26 -93 -9 -151 -26 -198 -58 -29 -19 -55 -26 -113 -30 -43 -3
-91 -13 -110 -22 -47 -25 -181 -55 -243 -55 -66 0 -165 -25 -191 -49 -27 -25
-64 -43 -73 -37 -21 12 -203 -15 -282 -43 -66 -23 -110 -31 -195 -36 -134 -8
-251 -31 -276 -56 -21 -21 -58 -27 -242 -39 -76 -4 -143 -13 -150 -18 -23 -19
-196 -42 -403 -52 -193 -10 -219 -13 -331 -46 l-122 -35 -313 -10 c-172 -5
-351 -14 -398 -19 -381 -43 -1043 -43 -1370 0 -41 5 -205 14 -363 19 -294 10
-378 22 -433 57 -18 12 -62 19 -157 26 -219 14 -338 29 -396 50 -31 10 -105
23 -166 29 -127 11 -143 15 -170 39 -32 29 -74 41 -160 47 -93 5 -176 24 -242
54 -46 21 -159 42 -174 33 -12 -7 -66 23 -73 41 -7 20 -45 34 -118 44 -71 9
-97 -3 -79 -37 6 -12 16 -22 22 -22 5 0 19 -15 30 -34 15 -25 34 -39 71 -53
33 -12 60 -30 80 -55 16 -21 36 -38 44 -38 7 0 21 -12 30 -26 10 -14 34 -34
55 -45 21 -10 46 -30 55 -44 10 -16 26 -25 41 -25 24 0 93 -59 93 -80 0 -5 17
-14 38 -20 20 -7 48 -23 62 -35 14 -12 38 -30 53 -40 15 -10 34 -30 42 -46 12
-22 26 -30 70 -39 44 -9 60 -18 81 -45 18 -24 36 -35 64 -40 30 -5 43 -14 58
-40 15 -24 33 -37 71 -50 28 -9 53 -21 57 -26 3 -5 29 -21 57 -35 29 -15 63
-39 77 -54 14 -16 42 -34 63 -40 20 -6 62 -27 93 -45 31 -19 68 -36 82 -40 15
-3 37 -20 49 -39 19 -29 30 -35 84 -45 41 -7 71 -19 88 -35 14 -13 50 -30 80
-37 44 -11 58 -20 74 -46 10 -18 22 -33 25 -33 47 0 128 -24 167 -49 26 -16
71 -35 100 -41 34 -7 61 -20 76 -37 32 -34 72 -50 147 -59 45 -5 76 -15 109
-37 35 -23 63 -33 112 -38 56 -6 68 -11 90 -38 24 -28 34 -32 136 -46 129 -19
141 -22 175 -46 16 -12 59 -22 125 -29 131 -15 160 -23 187 -54 21 -24 30 -26
133 -31 138 -6 340 -33 382 -50 75 -31 218 -38 688 -32 l462 6 124 30 c80 19
179 33 279 41 143 11 157 14 195 40 50 34 104 50 173 50 39 0 62 6 90 25 33
22 90 38 216 60 25 4 50 18 67 36 22 23 43 33 98 43 47 9 80 22 101 40 18 14
42 26 54 26 42 0 118 32 124 52 6 24 52 48 91 48 18 0 44 12 70 34 26 22 55
36 85 40 42 7 77 33 88 67 2 6 27 17 56 24 34 9 63 25 80 43 17 18 43 32 67
36 28 5 52 20 81 49 52 53 111 96 144 104 29 7 70 41 70 59 0 15 64 54 89 54
10 0 26 11 35 25 9 14 32 31 50 39 19 8 37 24 41 35 3 12 20 28 36 36 16 9 38
28 50 44 11 15 42 38 68 50 33 15 62 39 93 79 25 32 61 66 81 75 19 9 48 33
64 53 41 52 106 114 119 114 7 0 26 17 43 38 60 72 106 117 135 132 16 8 39
33 50 55 23 45 77 103 118 128 15 9 36 37 47 61 11 25 50 74 89 113 38 37 75
79 82 93 7 14 28 38 46 53 19 16 34 35 34 43 0 8 14 23 31 33 28 17 69 77 69
101 0 12 -39 13 -60 1z"/>
<path d="M10590 4515 c-21 -26 10 -126 47 -150 24 -16 50 -64 56 -103 1 -11
15 -34 30 -51 15 -18 30 -51 34 -74 4 -30 17 -53 45 -80 21 -21 38 -44 38 -52
0 -7 11 -27 25 -43 14 -17 36 -58 48 -92 17 -45 32 -66 55 -80 18 -11 32 -28
32 -39 0 -11 18 -41 40 -66 26 -30 42 -60 46 -87 5 -30 14 -45 38 -59 35 -21
74 -71 112 -145 15 -29 40 -59 58 -69 37 -22 46 -33 46 -59 0 -11 16 -36 35
-55 83 -85 115 -121 115 -128 0 -4 18 -26 40 -48 148 -148 209 -215 229 -248
15 -24 44 -50 77 -69 30 -16 60 -40 66 -52 15 -28 109 -116 125 -116 6 0 25
-18 42 -39 18 -23 44 -42 60 -46 19 -4 31 -14 35 -30 3 -13 23 -34 46 -47 21
-13 69 -40 105 -61 39 -23 70 -48 75 -62 9 -24 50 -57 66 -54 27 5 48 -5 83
-37 22 -19 56 -40 75 -45 21 -6 37 -18 41 -30 7 -21 75 -58 106 -59 9 0 34
-12 55 -26 21 -15 62 -33 89 -40 32 -9 59 -23 75 -43 20 -23 38 -31 90 -41 36
-6 74 -13 86 -15 11 -3 37 -17 57 -33 29 -24 50 -30 109 -36 56 -5 78 -12 98
-30 42 -39 64 -46 202 -61 151 -16 230 -30 258 -45 62 -33 947 -37 1024 -5 19
8 49 17 67 20 19 3 57 10 84 15 28 5 91 11 140 15 144 9 160 13 199 51 29 28
42 34 79 34 71 0 145 18 208 50 39 19 85 33 136 39 68 8 80 13 103 40 19 23
41 34 90 45 36 9 92 29 124 46 32 16 68 30 80 30 27 1 105 36 131 60 11 10 47
28 80 39 68 23 100 54 86 79 -14 26 -131 42 -363 50 l-207 8 -51 32 c-55 35
-107 43 -344 58 -136 8 -137 8 -211 35 -38 13 -103 25 -180 31 -73 6 -132 15
-150 25 -16 9 -46 24 -65 34 -20 10 -68 21 -110 25 -115 9 -229 32 -264 53
-20 12 -60 21 -114 24 -84 7 -143 27 -192 67 -19 16 -44 21 -107 24 -64 4 -99
12 -169 41 -55 23 -115 40 -157 44 -68 7 -75 11 -102 56 -7 12 -31 19 -80 25
-84 9 -144 25 -193 50 -21 11 -68 24 -107 30 -45 7 -74 16 -80 27 -25 41 -45
51 -109 58 -49 5 -78 15 -109 36 -23 16 -51 29 -62 29 -43 0 -98 23 -128 52
-37 35 -54 43 -118 52 -26 4 -67 20 -91 35 -25 16 -71 36 -102 45 -35 11 -61
25 -71 40 -14 21 -95 56 -130 56 -7 0 -30 12 -51 26 -21 15 -59 34 -84 42 -25
8 -54 26 -65 39 -12 14 -50 35 -90 49 -38 13 -78 33 -89 43 -12 10 -38 24 -59
31 -21 7 -50 25 -64 41 -14 15 -42 34 -62 40 -20 7 -49 22 -64 35 -16 13 -33
24 -38 24 -20 0 -99 43 -99 54 0 24 -39 53 -78 60 -27 4 -57 20 -87 46 -25 22
-54 40 -63 40 -10 0 -26 14 -36 30 -10 18 -34 37 -57 46 -21 9 -39 20 -39 24
0 4 -27 22 -60 39 -38 20 -66 43 -76 62 -9 19 -31 37 -58 49 -23 10 -55 30
-71 44 -15 14 -31 26 -35 26 -4 0 -13 14 -20 31 -10 22 -27 37 -64 54 -28 12
-67 39 -85 59 -19 20 -43 36 -53 36 -10 0 -18 6 -18 14 0 20 -37 63 -59 69
-11 3 -25 -1 -31 -8z"/>
<path d="M10284 3535 c-10 -42 4 -179 26 -255 14 -50 26 -132 34 -246 9 -122
17 -177 29 -195 17 -25 41 -140 52 -241 6 -49 11 -60 41 -83 24 -18 34 -34 34
-53 0 -42 17 -92 46 -133 14 -21 30 -57 35 -81 15 -69 27 -92 59 -110 21 -12
30 -25 30 -42 0 -14 13 -40 29 -58 35 -41 47 -64 55 -109 5 -29 13 -40 37 -49
17 -7 38 -25 47 -39 9 -14 25 -32 34 -39 10 -7 25 -29 32 -47 8 -19 31 -44 53
-58 41 -26 103 -91 103 -107 0 -6 24 -26 54 -45 30 -19 58 -40 61 -46 4 -5 18
-14 31 -19 13 -5 30 -25 38 -44 14 -35 25 -41 86 -51 21 -4 48 -19 69 -41 20
-21 43 -34 60 -35 39 -1 61 -12 74 -39 13 -26 57 -44 129 -55 21 -3 52 -18 69
-33 24 -20 47 -28 96 -33 52 -5 71 -13 109 -42 41 -32 52 -36 132 -42 111 -8
233 -31 297 -55 58 -22 134 -27 497 -36 269 -6 298 -2 298 36 0 14 -11 22 -42
30 -24 6 -52 16 -63 22 -38 22 -115 58 -124 58 -6 0 -24 17 -41 39 -27 33 -41
40 -89 50 -45 9 -62 18 -80 41 -13 19 -31 30 -46 30 -38 0 -75 21 -81 47 -7
25 -40 46 -90 57 -18 4 -40 16 -50 28 -11 11 -32 27 -49 35 -16 9 -45 31 -65
49 -19 18 -47 36 -63 40 -15 3 -39 20 -52 39 -18 23 -36 34 -64 39 -31 5 -43
13 -60 42 -13 22 -37 42 -65 54 -24 11 -49 27 -56 36 -8 8 -26 22 -42 30 -15
8 -34 30 -42 49 -12 27 -23 36 -58 45 -32 9 -61 29 -113 80 -38 37 -89 77
-112 89 -23 11 -44 30 -48 41 -4 11 -20 27 -36 35 -16 9 -35 28 -44 44 -8 16
-24 32 -35 36 -11 4 -34 24 -52 46 -17 21 -40 39 -50 39 -12 0 -24 13 -34 35
-8 19 -27 41 -42 49 -15 8 -33 26 -40 41 -7 14 -28 33 -47 41 -24 10 -35 21
-35 34 0 13 -13 29 -35 42 -20 11 -42 33 -51 49 -8 16 -26 36 -40 46 -14 9
-30 27 -35 40 -5 13 -22 32 -39 41 -16 9 -35 31 -42 48 -7 18 -46 66 -85 108
-40 43 -75 89 -79 104 -8 42 -18 55 -56 80 -26 18 -50 51 -88 125 -29 56 -65
112 -80 124 -15 13 -31 34 -34 48 -4 15 -20 44 -36 67 -16 22 -32 57 -36 77
-11 63 -27 79 -79 79 -38 -1 -46 -5 -51 -23z"/>
</g>
</svg>
